<?xml version="1.0" standalone="no"?><svg xmlns:xlink="http://www.w3.org/1999/xlink" xmlns="http://www.w3.org/2000/svg" viewBox="0 0 1000 529.4150726640263" preserveAspectRatio="xMaxYMax slice"><g transform="scale(0.8033612635265953)"><rect x="0" y="0" width="1244.7777777777778" height="659" fill="#ffffff"/><rect x="219.66666666666669" y="73.22222222222223" width="73.22222222222223" height="73.22222222222223" fill="#ffffff"/><rect x="256.28" y="73.22" width="36.61" height="36.61" fill="#fdfefe"/><rect x="219.67" y="109.83" width="36.61" height="36.61" fill="#7ab2cb"/><rect x="732.2222222222223" y="73.22222222222223" width="73.22222222222223" height="73.22222222222223" fill="#ffffff"/><rect x="768.83" y="73.22" width="36.61" height="36.61" fill="#e8f8f3"/><rect x="73.22222222222223" y="146.44444444444446" width="73.22222222222223" height="73.22222222222223" fill="#ffffff"/><rect x="73.22" y="146.44" width="36.61" height="36.61" fill="#deecf2"/><rect x="439.33333333333337" y="146.44444444444446" width="73.22222222222223" height="73.22222222222223" fill="#ffffff"/><rect x="439.33" y="183.06" width="36.61" height="36.61" fill="#d5c7db"/><rect x="1025.1111111111113" y="146.44444444444446" width="73.22222222222223" height="73.22222222222223" fill="#ffffff"/><rect x="1061.72" y="183.06" width="36.61" height="36.61" fill="#def5ed"/><rect x="1171.5555555555557" y="146.44444444444446" width="73.22222222222223" height="73.22222222222223" fill="#ffffff"/><rect x="1171.56" y="183.06" width="36.61" height="36.61" fill="#b9ead8"/><rect x="73.22222222222223" y="219.66666666666669" width="73.22222222222223" height="73.22222222222223" fill="#ffffff"/><rect x="73.22" y="256.28" width="36.61" height="36.61" fill="#e2eef4"/><rect x="219.66666666666669" y="219.66666666666669" width="73.22222222222223" height="73.22222222222223" fill="#ffffff"/><rect x="219.67" y="219.67" width="36.61" height="36.61" fill="#ffffff"/><rect x="256.28" y="219.67" width="36.61" height="36.61" fill="#cef1e4"/><rect x="256.28" y="256.28" width="36.61" height="36.61" fill="#d6c8db"/><rect x="292.8888888888889" y="219.66666666666669" width="73.22222222222223" height="73.22222222222223" fill="#ffffff"/><rect x="292.89" y="219.67" width="36.61" height="36.61" fill="#7cb3cc"/><rect x="329.5" y="219.67" width="36.61" height="36.61" fill="#fceef0"/><rect x="366.11111111111114" y="219.66666666666669" width="73.22222222222223" height="73.22222222222223" fill="#ffffff"/><rect x="366.11" y="219.67" width="36.61" height="36.61" fill="#fbfafc"/><rect x="512.5555555555557" y="219.66666666666669" width="73.22222222222223" height="73.22222222222223" fill="#ffffff"/><rect x="549.17" y="219.67" width="36.61" height="36.61" fill="#cbf0e3"/><rect x="549.17" y="256.28" width="36.61" height="36.61" fill="#fae1e4"/><rect x="585.7777777777778" y="219.66666666666669" width="73.22222222222223" height="73.22222222222223" fill="#ffffff"/><rect x="585.78" y="219.67" width="36.61" height="36.61" fill="#c5eedf"/><rect x="585.78" y="256.28" width="36.61" height="36.61" fill="#f8fdfb"/><rect x="659" y="219.66666666666669" width="73.22222222222223" height="73.22222222222223" fill="#ffffff"/><rect x="659" y="219.67" width="36.61" height="36.61" fill="#e6f8f1"/><rect x="659" y="256.28" width="36.61" height="36.61" fill="#f9dade"/><rect x="695.61" y="256.28" width="36.61" height="36.61" fill="#f6ccd2"/><rect x="1025.1111111111113" y="219.66666666666669" width="73.22222222222223" height="73.22222222222223" fill="#ffffff"/><rect x="1098.3333333333335" y="219.66666666666669" width="73.22222222222223" height="73.22222222222223" fill="#ffffff"/><rect x="1098.33" y="219.67" width="36.61" height="36.61" fill="#fdfefe"/><rect x="1134.94" y="256.28" width="36.61" height="36.61" fill="#f8fdfb"/><rect x="0" y="292.8888888888889" width="73.22222222222223" height="73.22222222222223" fill="#ffffff"/><rect x="36.61" y="292.89" width="36.61" height="36.61" fill="#96c2d6"/><rect x="0" y="329.5" width="36.61" height="36.61" fill="#e1f6ef"/><rect x="73.22222222222223" y="292.8888888888889" width="73.22222222222223" height="73.22222222222223" fill="#ffffff"/><rect x="219.66666666666669" y="292.8888888888889" width="73.22222222222223" height="73.22222222222223" fill="#ffffff"/><rect x="219.67" y="292.89" width="36.61" height="36.61" fill="#f8f6f9"/><rect x="256.28" y="292.89" width="36.61" height="36.61" fill="#fcfbfc"/><rect x="219.67" y="329.5" width="36.61" height="36.61" fill="#d7c9dc"/><rect x="292.8888888888889" y="292.8888888888889" width="73.22222222222223" height="73.22222222222223" fill="#ffffff"/><rect x="292.89" y="292.89" width="36.61" height="36.61" fill="#c3edde"/><rect x="329.5" y="292.89" width="36.61" height="36.61" fill="#dacedf"/><rect x="329.5" y="329.5" width="36.61" height="36.61" fill="#c8efe1"/><rect x="366.11111111111114" y="292.8888888888889" width="73.22222222222223" height="73.22222222222223" fill="#ffffff"/><rect x="402.72" y="292.89" width="36.61" height="36.61" fill="#d9ccde"/><rect x="439.33333333333337" y="292.8888888888889" width="73.22222222222223" height="73.22222222222223" fill="#ffffff"/><rect x="439.33" y="292.89" width="36.61" height="36.61" fill="#e2d9e6"/><rect x="475.94" y="292.89" width="36.61" height="36.61" fill="#f3f8fa"/><rect x="439.33" y="329.5" width="36.61" height="36.61" fill="#f7cfd5"/><rect x="512.5555555555557" y="292.8888888888889" width="73.22222222222223" height="73.22222222222223" fill="#ffffff"/><rect x="512.56" y="292.89" width="36.61" height="36.61" fill="#accfdf"/><rect x="549.17" y="292.89" width="36.61" height="36.61" fill="#f8d7dc"/><rect x="512.56" y="329.5" width="36.61" height="36.61" fill="#e5f0f5"/><rect x="549.17" y="329.5" width="36.61" height="36.61" fill="#f6f3f7"/><rect x="659" y="292.8888888888889" width="73.22222222222223" height="73.22222222222223" fill="#ffffff"/><rect x="659" y="329.5" width="36.61" height="36.61" fill="#fef9fa"/><rect x="695.61" y="329.5" width="36.61" height="36.61" fill="#fefefe"/><rect x="878.6666666666667" y="292.8888888888889" width="73.22222222222223" height="73.22222222222223" fill="#ffffff"/><rect x="878.67" y="329.5" width="36.61" height="36.61" fill="#fceff1"/><rect x="915.28" y="329.5" width="36.61" height="36.61" fill="#e5dbe8"/><rect x="951.8888888888889" y="292.8888888888889" width="73.22222222222223" height="73.22222222222223" fill="#ffffff"/><rect x="951.89" y="292.89" width="36.61" height="36.61" fill="#c4dde8"/><rect x="0" y="366.11111111111114" width="73.22222222222223" height="73.22222222222223" fill="#ffffff"/><rect x="0" y="402.72" width="36.61" height="36.61" fill="#d6e7ef"/><rect x="36.61" y="402.72" width="36.61" height="36.61" fill="#f8fdfb"/><rect x="73.22222222222223" y="366.11111111111114" width="73.22222222222223" height="73.22222222222223" fill="#ffffff"/><rect x="73.22" y="366.11" width="36.61" height="36.61" fill="#deecf2"/><rect x="109.83" y="366.11" width="36.61" height="36.61" fill="#fcfdfe"/><rect x="73.22" y="402.72" width="36.61" height="36.61" fill="#fdf1f3"/><rect x="109.83" y="402.72" width="36.61" height="36.61" fill="#d3c3d8"/><rect x="219.66666666666669" y="366.11111111111114" width="73.22222222222223" height="73.22222222222223" fill="#ffffff"/><rect x="219.67" y="366.11" width="36.61" height="36.61" fill="#e8e0eb"/><rect x="256.28" y="366.11" width="36.61" height="36.61" fill="#b5d4e2"/><rect x="219.67" y="402.72" width="36.61" height="36.61" fill="#daf4eb"/><rect x="292.8888888888889" y="366.11111111111114" width="73.22222222222223" height="73.22222222222223" fill="#ffffff"/><rect x="292.89" y="366.11" width="36.61" height="36.61" fill="#fdf1f2"/><rect x="329.5" y="366.11" width="36.61" height="36.61" fill="#e0f6ee"/><rect x="292.89" y="402.72" width="36.61" height="36.61" fill="#f8d9dd"/><rect x="366.11111111111114" y="366.11111111111114" width="73.22222222222223" height="73.22222222222223" fill="#ffffff"/><rect x="366.11" y="366.11" width="36.61" height="36.61" fill="#fbf9fb"/><rect x="402.72" y="366.11" width="36.61" height="36.61" fill="#f0eaf2"/><rect x="366.11" y="402.72" width="36.61" height="36.61" fill="#f6f3f7"/><rect x="402.72" y="402.72" width="36.61" height="36.61" fill="#f6f3f7"/><rect x="439.33333333333337" y="366.11111111111114" width="73.22222222222223" height="73.22222222222223" fill="#ffffff"/><rect x="439.33" y="366.11" width="36.61" height="36.61" fill="#f9dbe0"/><rect x="475.94" y="366.11" width="36.61" height="36.61" fill="#ebe4ee"/><rect x="439.33" y="402.72" width="36.61" height="36.61" fill="#dcd0e1"/><rect x="475.94" y="402.72" width="36.61" height="36.61" fill="#beecdb"/><rect x="512.5555555555557" y="366.11111111111114" width="73.22222222222223" height="73.22222222222223" fill="#ffffff"/><rect x="549.17" y="366.11" width="36.61" height="36.61" fill="#f8d8dc"/><rect x="512.56" y="402.72" width="36.61" height="36.61" fill="#d1f2e6"/><rect x="585.7777777777778" y="366.11111111111114" width="73.22222222222223" height="73.22222222222223" fill="#ffffff"/><rect x="622.39" y="366.11" width="36.61" height="36.61" fill="#f5fcfa"/><rect x="585.78" y="402.72" width="36.61" height="36.61" fill="#f9dee2"/><rect x="622.39" y="402.72" width="36.61" height="36.61" fill="#fcedef"/><rect x="659" y="366.11111111111114" width="73.22222222222223" height="73.22222222222223" fill="#ffffff"/><rect x="659" y="402.72" width="36.61" height="36.61" fill="#e6f8f1"/><rect x="732.2222222222223" y="366.11111111111114" width="73.22222222222223" height="73.22222222222223" fill="#ffffff"/><rect x="768.83" y="366.11" width="36.61" height="36.61" fill="#97c3d6"/><rect x="805.4444444444446" y="366.11111111111114" width="73.22222222222223" height="73.22222222222223" fill="#ffffff"/><rect x="805.44" y="366.11" width="36.61" height="36.61" fill="#ded2e2"/><rect x="842.06" y="366.11" width="36.61" height="36.61" fill="#f1ecf3"/><rect x="805.44" y="402.72" width="36.61" height="36.61" fill="#c2dbe7"/><rect x="842.06" y="402.72" width="36.61" height="36.61" fill="#d9e9f0"/><rect x="951.8888888888889" y="366.11111111111114" width="73.22222222222223" height="73.22222222222223" fill="#ffffff"/><rect x="988.5" y="366.11" width="36.61" height="36.61" fill="#85b8cf"/><rect x="988.5" y="402.72" width="36.61" height="36.61" fill="#e6deea"/><rect x="1025.1111111111113" y="366.11111111111114" width="73.22222222222223" height="73.22222222222223" fill="#ffffff"/><rect x="1025.11" y="366.11" width="36.61" height="36.61" fill="#fefbfb"/><rect x="1061.72" y="366.11" width="36.61" height="36.61" fill="#c1eddd"/><rect x="1025.11" y="402.72" width="36.61" height="36.61" fill="#fefeff"/><rect x="1098.3333333333335" y="366.11111111111114" width="73.22222222222223" height="73.22222222222223" fill="#ffffff"/><rect x="1098.33" y="366.11" width="36.61" height="36.61" fill="#dfd4e3"/><rect x="1134.94" y="366.11" width="36.61" height="36.61" fill="#f4f0f5"/><rect x="1098.33" y="402.72" width="36.61" height="36.61" fill="#f8d5da"/><rect x="1171.5555555555557" y="366.11111111111114" width="73.22222222222223" height="73.22222222222223" fill="#ffffff"/><rect x="1171.56" y="366.11" width="36.61" height="36.61" fill="#f9dde1"/><rect x="1208.17" y="366.11" width="36.61" height="36.61" fill="#cae0ea"/><rect x="1171.56" y="402.72" width="36.61" height="36.61" fill="#b8ead8"/><rect x="1208.17" y="402.72" width="36.61" height="36.61" fill="#d1e4ed"/><rect x="219.66666666666669" y="439.33333333333337" width="73.22222222222223" height="73.22222222222223" fill="#ffffff"/><rect x="219.67" y="439.33" width="36.61" height="36.61" fill="#91bfd4"/><rect x="256.28" y="475.94" width="36.61" height="36.61" fill="#a6cbdc"/><rect x="292.8888888888889" y="439.33333333333337" width="73.22222222222223" height="73.22222222222223" fill="#ffffff"/><rect x="329.5" y="439.33" width="36.61" height="36.61" fill="#e9e1eb"/><rect x="292.89" y="475.94" width="36.61" height="36.61" fill="#f3fcf9"/><rect x="366.11111111111114" y="439.33333333333337" width="73.22222222222223" height="73.22222222222223" fill="#ffffff"/><rect x="366.11" y="439.33" width="36.61" height="36.61" fill="#fbfdfd"/><rect x="402.72" y="439.33" width="36.61" height="36.61" fill="#f5f9fb"/><rect x="366.11" y="475.94" width="36.61" height="36.61" fill="#fadfe3"/><rect x="402.72" y="475.94" width="36.61" height="36.61" fill="#d3e6ee"/><rect x="585.7777777777778" y="439.33333333333337" width="73.22222222222223" height="73.22222222222223" fill="#ffffff"/><rect x="622.39" y="439.33" width="36.61" height="36.61" fill="#90bfd4"/><rect x="585.78" y="475.94" width="36.61" height="36.61" fill="#b2d2e1"/><rect x="622.39" y="475.94" width="36.61" height="36.61" fill="#e7dfeb"/><rect x="659" y="439.33333333333337" width="73.22222222222223" height="73.22222222222223" fill="#ffffff"/><rect x="659" y="439.33" width="36.61" height="36.61" fill="#fbe8eb"/><rect x="695.61" y="439.33" width="36.61" height="36.61" fill="#f8f6f9"/><rect x="659" y="475.94" width="36.61" height="36.61" fill="#e4f0f5"/><rect x="732.2222222222223" y="439.33333333333337" width="73.22222222222223" height="73.22222222222223" fill="#ffffff"/><rect x="732.22" y="439.33" width="36.61" height="36.61" fill="#f7f4f8"/><rect x="768.83" y="439.33" width="36.61" height="36.61" fill="#d2c3d8"/><rect x="732.22" y="475.94" width="36.61" height="36.61" fill="#e3d9e6"/><rect x="768.83" y="475.94" width="36.61" height="36.61" fill="#f8d5da"/><rect x="805.4444444444446" y="439.33333333333337" width="73.22222222222223" height="73.22222222222223" fill="#ffffff"/><rect x="805.44" y="439.33" width="36.61" height="36.61" fill="#d2c2d8"/><rect x="842.06" y="439.33" width="36.61" height="36.61" fill="#d8cadd"/><rect x="805.44" y="475.94" width="36.61" height="36.61" fill="#e2d7e5"/><rect x="878.6666666666667" y="439.33333333333337" width="73.22222222222223" height="73.22222222222223" fill="#ffffff"/><rect x="878.67" y="439.33" width="36.61" height="36.61" fill="#f9f7fa"/><rect x="915.28" y="439.33" width="36.61" height="36.61" fill="#ffffff"/><rect x="878.67" y="475.94" width="36.61" height="36.61" fill="#fae0e3"/><rect x="915.28" y="475.94" width="36.61" height="36.61" fill="#bad7e4"/><rect x="951.8888888888889" y="439.33333333333337" width="73.22222222222223" height="73.22222222222223" fill="#ffffff"/><rect x="988.5" y="439.33" width="36.61" height="36.61" fill="#f2fbf8"/><rect x="951.89" y="475.94" width="36.61" height="36.61" fill="#fcfbfc"/><rect x="988.5" y="475.94" width="36.61" height="36.61" fill="#f6cbd1"/><rect x="1025.1111111111113" y="439.33333333333337" width="73.22222222222223" height="73.22222222222223" fill="#ffffff"/><rect x="1061.72" y="439.33" width="36.61" height="36.61" fill="#f7d1d6"/><rect x="1025.11" y="475.94" width="36.61" height="36.61" fill="#fdfefe"/><rect x="1061.72" y="475.94" width="36.61" height="36.61" fill="#fefefe"/><rect x="1098.3333333333335" y="439.33333333333337" width="73.22222222222223" height="73.22222222222223" fill="#ffffff"/><rect x="1098.33" y="439.33" width="36.61" height="36.61" fill="#fcf0f1"/><rect x="1134.94" y="439.33" width="36.61" height="36.61" fill="#e8f8f2"/><rect x="1098.33" y="475.94" width="36.61" height="36.61" fill="#ddd1e1"/><rect x="0" y="512.5555555555557" width="73.22222222222223" height="73.22222222222223" fill="#ffffff"/><rect x="0" y="512.56" width="36.61" height="36.61" fill="#edfaf5"/><rect x="36.61" y="512.56" width="36.61" height="36.61" fill="#c7dee9"/><rect x="0" y="549.17" width="36.61" height="36.61" fill="#fceef0"/><rect x="36.61" y="549.17" width="36.61" height="36.61" fill="#d0f1e5"/><rect x="73.22222222222223" y="512.5555555555557" width="73.22222222222223" height="73.22222222222223" fill="#ffffff"/><rect x="73.22" y="512.56" width="36.61" height="36.61" fill="#b8ead8"/><rect x="109.83" y="512.56" width="36.61" height="36.61" fill="#f7f4f8"/><rect x="73.22" y="549.17" width="36.61" height="36.61" fill="#98c3d7"/><rect x="109.83" y="549.17" width="36.61" height="36.61" fill="#a5cbdc"/><rect x="146.44444444444446" y="512.5555555555557" width="73.22222222222223" height="73.22222222222223" fill="#ffffff"/><rect x="146.44" y="512.56" width="36.61" height="36.61" fill="#e6dde9"/><rect x="183.06" y="512.56" width="36.61" height="36.61" fill="#f6ced4"/><rect x="146.44" y="549.17" width="36.61" height="36.61" fill="#f8f6f9"/><rect x="183.06" y="549.17" width="36.61" height="36.61" fill="#dcd0e0"/><rect x="219.66666666666669" y="512.5555555555557" width="73.22222222222223" height="73.22222222222223" fill="#ffffff"/><rect x="219.67" y="512.56" width="36.61" height="36.61" fill="#fefcfc"/><rect x="256.28" y="512.56" width="36.61" height="36.61" fill="#dacddf"/><rect x="256.28" y="549.17" width="36.61" height="36.61" fill="#bed9e5"/><rect x="292.8888888888889" y="512.5555555555557" width="73.22222222222223" height="73.22222222222223" fill="#ffffff"/><rect x="292.89" y="512.56" width="36.61" height="36.61" fill="#f6ccd2"/><rect x="329.5" y="512.56" width="36.61" height="36.61" fill="#e0d5e4"/><rect x="292.89" y="549.17" width="36.61" height="36.61" fill="#d3f2e7"/><rect x="329.5" y="549.17" width="36.61" height="36.61" fill="#94c1d5"/><rect x="366.11111111111114" y="512.5555555555557" width="73.22222222222223" height="73.22222222222223" fill="#ffffff"/><rect x="366.11" y="512.56" width="36.61" height="36.61" fill="#fbe6e9"/><rect x="402.72" y="512.56" width="36.61" height="36.61" fill="#d8f4ea"/><rect x="366.11" y="549.17" width="36.61" height="36.61" fill="#c3edde"/><rect x="402.72" y="549.17" width="36.61" height="36.61" fill="#e6f8f1"/><rect x="439.33333333333337" y="512.5555555555557" width="73.22222222222223" height="73.22222222222223" fill="#ffffff"/><rect x="439.33" y="512.56" width="36.61" height="36.61" fill="#d6c8db"/><rect x="475.94" y="512.56" width="36.61" height="36.61" fill="#c0eddd"/><rect x="439.33" y="549.17" width="36.61" height="36.61" fill="#f0fbf7"/><rect x="475.94" y="549.17" width="36.61" height="36.61" fill="#fef9f9"/><rect x="512.5555555555557" y="512.5555555555557" width="73.22222222222223" height="73.22222222222223" fill="#ffffff"/><rect x="512.56" y="512.56" width="36.61" height="36.61" fill="#f0ebf2"/><rect x="549.17" y="512.56" width="36.61" height="36.61" fill="#bad7e4"/><rect x="512.56" y="549.17" width="36.61" height="36.61" fill="#ded3e3"/><rect x="549.17" y="549.17" width="36.61" height="36.61" fill="#fdfffe"/><rect x="659" y="512.5555555555557" width="73.22222222222223" height="73.22222222222223" fill="#ffffff"/><rect x="659" y="512.56" width="36.61" height="36.61" fill="#f0ebf2"/><rect x="695.61" y="512.56" width="36.61" height="36.61" fill="#d9cbde"/><rect x="659" y="549.17" width="36.61" height="36.61" fill="#d3e5ee"/><rect x="732.2222222222223" y="512.5555555555557" width="73.22222222222223" height="73.22222222222223" fill="#ffffff"/><rect x="732.22" y="512.56" width="36.61" height="36.61" fill="#f7cfd5"/><rect x="732.22" y="549.17" width="36.61" height="36.61" fill="#bcebdb"/><rect x="768.83" y="549.17" width="36.61" height="36.61" fill="#bcebdb"/><rect x="805.4444444444446" y="512.5555555555557" width="73.22222222222223" height="73.22222222222223" fill="#ffffff"/><rect x="805.44" y="512.56" width="36.61" height="36.61" fill="#d3f2e7"/><rect x="842.06" y="512.56" width="36.61" height="36.61" fill="#beecdb"/><rect x="805.44" y="549.17" width="36.61" height="36.61" fill="#d1c1d7"/><rect x="842.06" y="549.17" width="36.61" height="36.61" fill="#f9dee2"/><rect x="878.6666666666667" y="512.5555555555557" width="73.22222222222223" height="73.22222222222223" fill="#ffffff"/><rect x="878.67" y="512.56" width="36.61" height="36.61" fill="#e1eef3"/><rect x="915.28" y="512.56" width="36.61" height="36.61" fill="#d5f3e8"/><rect x="878.67" y="549.17" width="36.61" height="36.61" fill="#f4fcf9"/><rect x="915.28" y="549.17" width="36.61" height="36.61" fill="#b3d3e1"/><rect x="951.8888888888889" y="512.5555555555557" width="73.22222222222223" height="73.22222222222223" fill="#ffffff"/><rect x="951.89" y="512.56" width="36.61" height="36.61" fill="#fffefe"/><rect x="988.5" y="512.56" width="36.61" height="36.61" fill="#fefafb"/><rect x="951.89" y="549.17" width="36.61" height="36.61" fill="#fef7f8"/><rect x="988.5" y="549.17" width="36.61" height="36.61" fill="#d9f4ea"/><rect x="1025.1111111111113" y="512.5555555555557" width="73.22222222222223" height="73.22222222222223" fill="#ffffff"/><rect x="1025.11" y="512.56" width="36.61" height="36.61" fill="#fadfe3"/><rect x="1061.72" y="512.56" width="36.61" height="36.61" fill="#f8f5f8"/><rect x="1025.11" y="549.17" width="36.61" height="36.61" fill="#bbd7e4"/><rect x="1061.72" y="549.17" width="36.61" height="36.61" fill="#e9e1ec"/><rect x="1098.3333333333335" y="512.5555555555557" width="73.22222222222223" height="73.22222222222223" fill="#ffffff"/><rect x="1098.33" y="512.56" width="36.61" height="36.61" fill="#e7f1f6"/><rect x="1134.94" y="512.56" width="36.61" height="36.61" fill="#fbeaec"/><rect x="1098.33" y="549.17" width="36.61" height="36.61" fill="#c5dee8"/><rect x="1134.94" y="549.17" width="36.61" height="36.61" fill="#cbf0e3"/><rect x="1171.5555555555557" y="512.5555555555557" width="73.22222222222223" height="73.22222222222223" fill="#ffffff"/><rect x="1171.56" y="512.56" width="36.61" height="36.61" fill="#e0f6ee"/><rect x="1208.17" y="512.56" width="36.61" height="36.61" fill="#9cc5d8"/><rect x="1171.56" y="549.17" width="36.61" height="36.61" fill="#a4cadb"/><rect x="1208.17" y="549.17" width="36.61" height="36.61" fill="#d1c1d7"/><rect x="0" y="585.7777777777778" width="73.22222222222223" height="73.22222222222223" fill="#ffffff"/><rect x="0" y="585.78" width="36.61" height="36.61" fill="#fcedef"/><rect x="36.61" y="585.78" width="36.61" height="36.61" fill="#e8e0eb"/><rect x="0" y="622.39" width="36.61" height="36.61" fill="#f9dde1"/><rect x="36.61" y="622.39" width="36.61" height="36.61" fill="#f0eaf2"/><rect x="73.22222222222223" y="585.7777777777778" width="73.22222222222223" height="73.22222222222223" fill="#ffffff"/><rect x="73.22" y="585.78" width="36.61" height="36.61" fill="#d4e6ee"/><rect x="109.83" y="585.78" width="36.61" height="36.61" fill="#f5fcf9"/><rect x="73.22" y="622.39" width="36.61" height="36.61" fill="#bdd8e5"/><rect x="109.83" y="622.39" width="36.61" height="36.61" fill="#74afc9"/><rect x="146.44444444444446" y="585.7777777777778" width="73.22222222222223" height="73.22222222222223" fill="#ffffff"/><rect x="146.44" y="585.78" width="36.61" height="36.61" fill="#faf8fa"/><rect x="183.06" y="585.78" width="36.61" height="36.61" fill="#fae3e6"/><rect x="146.44" y="622.39" width="36.61" height="36.61" fill="#f7f4f8"/><rect x="183.06" y="622.39" width="36.61" height="36.61" fill="#f8d5da"/><rect x="219.66666666666669" y="585.7777777777778" width="73.22222222222223" height="73.22222222222223" fill="#ffffff"/><rect x="219.67" y="585.78" width="36.61" height="36.61" fill="#ebf9f4"/><rect x="256.28" y="585.78" width="36.61" height="36.61" fill="#f6ced3"/><rect x="219.67" y="622.39" width="36.61" height="36.61" fill="#c0eddd"/><rect x="256.28" y="622.39" width="36.61" height="36.61" fill="#c2edde"/><rect x="292.8888888888889" y="585.7777777777778" width="73.22222222222223" height="73.22222222222223" fill="#ffffff"/><rect x="292.89" y="585.78" width="36.61" height="36.61" fill="#f5fcfa"/><rect x="329.5" y="585.78" width="36.61" height="36.61" fill="#f9dce0"/><rect x="292.89" y="622.39" width="36.61" height="36.61" fill="#d4c5da"/><rect x="329.5" y="622.39" width="36.61" height="36.61" fill="#f9fcfd"/><rect x="366.11111111111114" y="585.7777777777778" width="73.22222222222223" height="73.22222222222223" fill="#ffffff"/><rect x="366.11" y="585.78" width="36.61" height="36.61" fill="#fcecee"/><rect x="402.72" y="585.78" width="36.61" height="36.61" fill="#f3eff5"/><rect x="366.11" y="622.39" width="36.61" height="36.61" fill="#b7d5e3"/><rect x="402.72" y="622.39" width="36.61" height="36.61" fill="#c5dee8"/><rect x="439.33333333333337" y="585.7777777777778" width="73.22222222222223" height="73.22222222222223" fill="#ffffff"/><rect x="439.33" y="585.78" width="36.61" height="36.61" fill="#fcfbfd"/><rect x="475.94" y="585.78" width="36.61" height="36.61" fill="#98c3d7"/><rect x="439.33" y="622.39" width="36.61" height="36.61" fill="#d1e4ed"/><rect x="475.94" y="622.39" width="36.61" height="36.61" fill="#f8d8dc"/><rect x="512.5555555555557" y="585.7777777777778" width="73.22222222222223" height="73.22222222222223" fill="#ffffff"/><rect x="512.56" y="585.78" width="36.61" height="36.61" fill="#cdf0e4"/><rect x="549.17" y="585.78" width="36.61" height="36.61" fill="#d1f1e6"/><rect x="512.56" y="622.39" width="36.61" height="36.61" fill="#fefefe"/><rect x="549.17" y="622.39" width="36.61" height="36.61" fill="#73adc8"/><rect x="585.7777777777778" y="585.7777777777778" width="73.22222222222223" height="73.22222222222223" fill="#ffffff"/><rect x="585.78" y="585.78" width="36.61" height="36.61" fill="#daf4eb"/><rect x="622.39" y="585.78" width="36.61" height="36.61" fill="#f4f0f5"/><rect x="585.78" y="622.39" width="36.61" height="36.61" fill="#fae1e5"/><rect x="622.39" y="622.39" width="36.61" height="36.61" fill="#f3eff5"/><rect x="659" y="585.7777777777778" width="73.22222222222223" height="73.22222222222223" fill="#ffffff"/><rect x="659" y="585.78" width="36.61" height="36.61" fill="#fefbfc"/><rect x="695.61" y="585.78" width="36.61" height="36.61" fill="#fdfcfd"/><rect x="659" y="622.39" width="36.61" height="36.61" fill="#ffffff"/><rect x="695.61" y="622.39" width="36.61" height="36.61" fill="#edfaf5"/><rect x="732.2222222222223" y="585.7777777777778" width="73.22222222222223" height="73.22222222222223" fill="#ffffff"/><rect x="732.22" y="585.78" width="36.61" height="36.61" fill="#fcf0f1"/><rect x="768.83" y="585.78" width="36.61" height="36.61" fill="#bcd8e5"/><rect x="732.22" y="622.39" width="36.61" height="36.61" fill="#fcecee"/><rect x="768.83" y="622.39" width="36.61" height="36.61" fill="#fbeaec"/><rect x="805.4444444444446" y="585.7777777777778" width="73.22222222222223" height="73.22222222222223" fill="#ffffff"/><rect x="805.44" y="585.78" width="36.61" height="36.61" fill="#fef8f9"/><rect x="842.06" y="585.78" width="36.61" height="36.61" fill="#fdfdfe"/><rect x="805.44" y="622.39" width="36.61" height="36.61" fill="#e2d7e5"/><rect x="842.06" y="622.39" width="36.61" height="36.61" fill="#fefffe"/><rect x="878.6666666666667" y="585.7777777777778" width="73.22222222222223" height="73.22222222222223" fill="#ffffff"/><rect x="878.67" y="585.78" width="36.61" height="36.61" fill="#ede6ef"/><rect x="915.28" y="585.78" width="36.61" height="36.61" fill="#cde2ec"/><rect x="878.67" y="622.39" width="36.61" height="36.61" fill="#9fc7d9"/><rect x="915.28" y="622.39" width="36.61" height="36.61" fill="#f5f2f6"/><rect x="951.8888888888889" y="585.7777777777778" width="73.22222222222223" height="73.22222222222223" fill="#ffffff"/><rect x="951.89" y="585.78" width="36.61" height="36.61" fill="#9fc7d9"/><rect x="988.5" y="585.78" width="36.61" height="36.61" fill="#c9efe2"/><rect x="951.89" y="622.39" width="36.61" height="36.61" fill="#fefffe"/><rect x="988.5" y="622.39" width="36.61" height="36.61" fill="#c0ecdd"/><rect x="1025.1111111111113" y="585.7777777777778" width="73.22222222222223" height="73.22222222222223" fill="#ffffff"/><rect x="1025.11" y="585.78" width="36.61" height="36.61" fill="#d5c7db"/><rect x="1061.72" y="585.78" width="36.61" height="36.61" fill="#fbfefd"/><rect x="1025.11" y="622.39" width="36.61" height="36.61" fill="#e7dfea"/><rect x="1061.72" y="622.39" width="36.61" height="36.61" fill="#d9ccde"/><rect x="1098.3333333333335" y="585.7777777777778" width="73.22222222222223" height="73.22222222222223" fill="#ffffff"/><rect x="1098.33" y="585.78" width="36.61" height="36.61" fill="#f8fbfc"/><rect x="1134.94" y="585.78" width="36.61" height="36.61" fill="#e7dfea"/><rect x="1098.33" y="622.39" width="36.61" height="36.61" fill="#d6c8dc"/><rect x="1134.94" y="622.39" width="36.61" height="36.61" fill="#e9f2f6"/><rect x="1171.5555555555557" y="585.7777777777778" width="73.22222222222223" height="73.22222222222223" fill="#ffffff"/><rect x="1171.56" y="585.78" width="36.61" height="36.61" fill="#e7deea"/><rect x="1208.17" y="585.78" width="36.61" height="36.61" fill="#d7c9dc"/><rect x="1171.56" y="622.39" width="36.61" height="36.61" fill="#fae1e5"/><rect x="1208.17" y="622.39" width="36.61" height="36.61" fill="#88bad0"/></g></svg>