<?xml version="1.0" standalone="no"?><svg xmlns:xlink="http://www.w3.org/1999/xlink" xmlns="http://www.w3.org/2000/svg" viewBox="0 0 1000 529.4122820131738" preserveAspectRatio="xMaxYMax slice"><g transform="scale(0.8794223953707205)"><rect x="0" y="0" width="1137.111111111111" height="602" fill="#09090b"/><rect x="200.66666666666666" y="66.88888888888889" width="66.88888888888889" height="66.88888888888889" fill="#09090b"/><rect x="200.67" y="66.89" width="33.44" height="33.44" fill="#17130f"/><rect x="200.67" y="100.33" width="33.44" height="33.44" fill="#6f542a"/><rect x="936.4444444444443" y="133.77777777777777" width="66.88888888888889" height="66.88888888888889" fill="#09090b"/><rect x="936.44" y="167.22" width="33.44" height="33.44" fill="#0a090b"/><rect x="133.77777777777777" y="200.66666666666666" width="66.88888888888889" height="66.88888888888889" fill="#09090b"/><rect x="869.5555555555555" y="200.66666666666666" width="66.88888888888889" height="66.88888888888889" fill="#09090b"/><rect x="903" y="200.67" width="33.44" height="33.44" fill="#c59445"/><rect x="869.56" y="234.11" width="33.44" height="33.44" fill="#b0853f"/><rect x="903" y="234.11" width="33.44" height="33.44" fill="#876632"/><rect x="936.4444444444443" y="200.66666666666666" width="66.88888888888889" height="66.88888888888889" fill="#09090b"/><rect x="1003.3333333333333" y="200.66666666666666" width="66.88888888888889" height="66.88888888888889" fill="#09090b"/><rect x="1003.33" y="234.11" width="33.44" height="33.44" fill="#0c0b0c"/><rect x="133.77777777777777" y="267.55555555555554" width="66.88888888888889" height="66.88888888888889" fill="#09090b"/><rect x="167.22" y="301" width="33.44" height="33.44" fill="#d5a04a"/><rect x="267.55555555555554" y="267.55555555555554" width="66.88888888888889" height="66.88888888888889" fill="#09090b"/><rect x="267.56" y="267.56" width="33.44" height="33.44" fill="#7b5d2e"/><rect x="301" y="267.56" width="33.44" height="33.44" fill="#c09143"/><rect x="301" y="301" width="33.44" height="33.44" fill="#302617"/><rect x="334.44444444444446" y="267.55555555555554" width="66.88888888888889" height="66.88888888888889" fill="#09090b"/><rect x="334.44" y="267.56" width="33.44" height="33.44" fill="#302617"/><rect x="367.89" y="267.56" width="33.44" height="33.44" fill="#48381f"/><rect x="334.44" y="301" width="33.44" height="33.44" fill="#71562b"/><rect x="535.1111111111111" y="267.55555555555554" width="66.88888888888889" height="66.88888888888889" fill="#09090b"/><rect x="568.56" y="301" width="33.44" height="33.44" fill="#936f36"/><rect x="602" y="267.55555555555554" width="66.88888888888889" height="66.88888888888889" fill="#09090b"/><rect x="635.44" y="267.56" width="33.44" height="33.44" fill="#634b27"/><rect x="602" y="301" width="33.44" height="33.44" fill="#d49f4a"/><rect x="668.8888888888889" y="267.55555555555554" width="66.88888888888889" height="66.88888888888889" fill="#09090b"/><rect x="702.33" y="267.56" width="33.44" height="33.44" fill="#846431"/><rect x="668.89" y="301" width="33.44" height="33.44" fill="#926e35"/><rect x="702.33" y="301" width="33.44" height="33.44" fill="#b98b41"/><rect x="936.4444444444443" y="267.55555555555554" width="66.88888888888889" height="66.88888888888889" fill="#09090b"/><rect x="969.89" y="267.56" width="33.44" height="33.44" fill="#926e35"/><rect x="1070.2222222222222" y="267.55555555555554" width="66.88888888888889" height="66.88888888888889" fill="#09090b"/><rect x="1103.67" y="267.56" width="33.44" height="33.44" fill="#685028"/><rect x="1103.67" y="301" width="33.44" height="33.44" fill="#211a12"/><rect x="0" y="334.44444444444446" width="66.88888888888889" height="66.88888888888889" fill="#09090b"/><rect x="0" y="334.44" width="33.44" height="33.44" fill="#72562b"/><rect x="0" y="367.89" width="33.44" height="33.44" fill="#1f1912"/><rect x="33.44" y="367.89" width="33.44" height="33.44" fill="#846431"/><rect x="133.77777777777777" y="334.44444444444446" width="66.88888888888889" height="66.88888888888889" fill="#09090b"/><rect x="267.55555555555554" y="334.44444444444446" width="66.88888888888889" height="66.88888888888889" fill="#09090b"/><rect x="267.56" y="334.44" width="33.44" height="33.44" fill="#a47c3b"/><rect x="267.56" y="367.89" width="33.44" height="33.44" fill="#b0843e"/><rect x="334.44444444444446" y="334.44444444444446" width="66.88888888888889" height="66.88888888888889" fill="#09090b"/><rect x="367.89" y="334.44" width="33.44" height="33.44" fill="#16130f"/><rect x="334.44" y="367.89" width="33.44" height="33.44" fill="#795c2d"/><rect x="468.2222222222222" y="334.44444444444446" width="66.88888888888889" height="66.88888888888889" fill="#09090b"/><rect x="468.22" y="334.44" width="33.44" height="33.44" fill="#0f0e0d"/><rect x="501.67" y="334.44" width="33.44" height="33.44" fill="#564223"/><rect x="468.22" y="367.89" width="33.44" height="33.44" fill="#b48740"/><rect x="535.1111111111111" y="334.44444444444446" width="66.88888888888889" height="66.88888888888889" fill="#09090b"/><rect x="535.11" y="334.44" width="33.44" height="33.44" fill="#17130f"/><rect x="568.56" y="334.44" width="33.44" height="33.44" fill="#382c1a"/><rect x="535.11" y="367.89" width="33.44" height="33.44" fill="#a0793a"/><rect x="568.56" y="367.89" width="33.44" height="33.44" fill="#d6a04a"/><rect x="602" y="334.44444444444446" width="66.88888888888889" height="66.88888888888889" fill="#09090b"/><rect x="635.44" y="334.44" width="33.44" height="33.44" fill="#0a0a0b"/><rect x="635.44" y="367.89" width="33.44" height="33.44" fill="#785b2d"/><rect x="668.8888888888889" y="334.44444444444446" width="66.88888888888889" height="66.88888888888889" fill="#09090b"/><rect x="668.89" y="334.44" width="33.44" height="33.44" fill="#d39e49"/><rect x="702.33" y="367.89" width="33.44" height="33.44" fill="#292115"/><rect x="802.6666666666666" y="334.44444444444446" width="66.88888888888889" height="66.88888888888889" fill="#09090b"/><rect x="802.67" y="334.44" width="33.44" height="33.44" fill="#aa803c"/><rect x="869.5555555555555" y="334.44444444444446" width="66.88888888888889" height="66.88888888888889" fill="#09090b"/><rect x="903" y="334.44" width="33.44" height="33.44" fill="#cc9947"/><rect x="1003.3333333333333" y="334.44444444444446" width="66.88888888888889" height="66.88888888888889" fill="#09090b"/><rect x="1003.33" y="334.44" width="33.44" height="33.44" fill="#816230"/><rect x="1036.78" y="334.44" width="33.44" height="33.44" fill="#0f0d0d"/><rect x="1003.33" y="367.89" width="33.44" height="33.44" fill="#795c2d"/><rect x="66.88888888888889" y="401.3333333333333" width="66.88888888888889" height="66.88888888888889" fill="#09090b"/><rect x="66.89" y="401.33" width="33.44" height="33.44" fill="#181410"/><rect x="100.33" y="401.33" width="33.44" height="33.44" fill="#362a19"/><rect x="66.89" y="434.78" width="33.44" height="33.44" fill="#daa34b"/><rect x="100.33" y="434.78" width="33.44" height="33.44" fill="#c69545"/><rect x="133.77777777777777" y="401.3333333333333" width="66.88888888888889" height="66.88888888888889" fill="#09090b"/><rect x="133.78" y="401.33" width="33.44" height="33.44" fill="#c89646"/><rect x="167.22" y="401.33" width="33.44" height="33.44" fill="#b68940"/><rect x="133.78" y="434.78" width="33.44" height="33.44" fill="#d6a14a"/><rect x="167.22" y="434.78" width="33.44" height="33.44" fill="#2d2316"/><rect x="200.66666666666666" y="401.3333333333333" width="66.88888888888889" height="66.88888888888889" fill="#09090b"/><rect x="200.67" y="401.33" width="33.44" height="33.44" fill="#372b19"/><rect x="200.67" y="434.78" width="33.44" height="33.44" fill="#8a6833"/><rect x="234.11" y="434.78" width="33.44" height="33.44" fill="#282014"/><rect x="267.55555555555554" y="401.3333333333333" width="66.88888888888889" height="66.88888888888889" fill="#09090b"/><rect x="267.56" y="401.33" width="33.44" height="33.44" fill="#d6a14a"/><rect x="334.44444444444446" y="401.3333333333333" width="66.88888888888889" height="66.88888888888889" fill="#09090b"/><rect x="334.44" y="401.33" width="33.44" height="33.44" fill="#bf9043"/><rect x="367.89" y="401.33" width="33.44" height="33.44" fill="#b0843e"/><rect x="334.44" y="434.78" width="33.44" height="33.44" fill="#3e301b"/><rect x="367.89" y="434.78" width="33.44" height="33.44" fill="#c89646"/><rect x="468.2222222222222" y="401.3333333333333" width="66.88888888888889" height="66.88888888888889" fill="#09090b"/><rect x="468.22" y="401.33" width="33.44" height="33.44" fill="#17130f"/><rect x="501.67" y="401.33" width="33.44" height="33.44" fill="#af843e"/><rect x="468.22" y="434.78" width="33.44" height="33.44" fill="#191510"/><rect x="501.67" y="434.78" width="33.44" height="33.44" fill="#2b2216"/><rect x="535.1111111111111" y="401.3333333333333" width="66.88888888888889" height="66.88888888888889" fill="#09090b"/><rect x="535.11" y="401.33" width="33.44" height="33.44" fill="#a87e3c"/><rect x="568.56" y="401.33" width="33.44" height="33.44" fill="#554123"/><rect x="568.56" y="434.78" width="33.44" height="33.44" fill="#d6a04a"/><rect x="602" y="401.3333333333333" width="66.88888888888889" height="66.88888888888889" fill="#09090b"/><rect x="602" y="401.33" width="33.44" height="33.44" fill="#9e7739"/><rect x="635.44" y="401.33" width="33.44" height="33.44" fill="#7d5f2f"/><rect x="602" y="434.78" width="33.44" height="33.44" fill="#9f7839"/><rect x="635.44" y="434.78" width="33.44" height="33.44" fill="#44341d"/><rect x="668.8888888888889" y="401.3333333333333" width="66.88888888888889" height="66.88888888888889" fill="#09090b"/><rect x="668.89" y="401.33" width="33.44" height="33.44" fill="#544022"/><rect x="702.33" y="401.33" width="33.44" height="33.44" fill="#c39344"/><rect x="668.89" y="434.78" width="33.44" height="33.44" fill="#a67d3c"/><rect x="702.33" y="434.78" width="33.44" height="33.44" fill="#3d2f1b"/><rect x="735.7777777777777" y="401.3333333333333" width="66.88888888888889" height="66.88888888888889" fill="#09090b"/><rect x="735.78" y="401.33" width="33.44" height="33.44" fill="#382b19"/><rect x="769.22" y="401.33" width="33.44" height="33.44" fill="#b58840"/><rect x="769.22" y="434.78" width="33.44" height="33.44" fill="#dba44c"/><rect x="802.6666666666666" y="401.3333333333333" width="66.88888888888889" height="66.88888888888889" fill="#09090b"/><rect x="802.67" y="401.33" width="33.44" height="33.44" fill="#8e6c34"/><rect x="802.67" y="434.78" width="33.44" height="33.44" fill="#bf9043"/><rect x="836.11" y="434.78" width="33.44" height="33.44" fill="#3f311c"/><rect x="869.5555555555555" y="401.3333333333333" width="66.88888888888889" height="66.88888888888889" fill="#09090b"/><rect x="869.56" y="401.33" width="33.44" height="33.44" fill="#c99746"/><rect x="903" y="401.33" width="33.44" height="33.44" fill="#5d4725"/><rect x="869.56" y="434.78" width="33.44" height="33.44" fill="#342918"/><rect x="903" y="434.78" width="33.44" height="33.44" fill="#d49f4a"/><rect x="1003.3333333333333" y="401.3333333333333" width="66.88888888888889" height="66.88888888888889" fill="#09090b"/><rect x="1003.33" y="401.33" width="33.44" height="33.44" fill="#cd9a47"/><rect x="1036.78" y="401.33" width="33.44" height="33.44" fill="#957036"/><rect x="1003.33" y="434.78" width="33.44" height="33.44" fill="#46361e"/><rect x="1036.78" y="434.78" width="33.44" height="33.44" fill="#856431"/><rect x="1070.2222222222222" y="401.3333333333333" width="66.88888888888889" height="66.88888888888889" fill="#09090b"/><rect x="1103.67" y="401.33" width="33.44" height="33.44" fill="#302617"/><rect x="1070.22" y="434.78" width="33.44" height="33.44" fill="#d49f49"/><rect x="1103.67" y="434.78" width="33.44" height="33.44" fill="#0a0a0b"/><rect x="0" y="468.2222222222222" width="66.88888888888889" height="66.88888888888889" fill="#09090b"/><rect x="0" y="468.22" width="33.44" height="33.44" fill="#271f14"/><rect x="33.44" y="468.22" width="33.44" height="33.44" fill="#4d3b20"/><rect x="0" y="501.67" width="33.44" height="33.44" fill="#1e1912"/><rect x="33.44" y="501.67" width="33.44" height="33.44" fill="#72562b"/><rect x="133.77777777777777" y="468.2222222222222" width="66.88888888888889" height="66.88888888888889" fill="#09090b"/><rect x="133.78" y="468.22" width="33.44" height="33.44" fill="#9c7638"/><rect x="167.22" y="468.22" width="33.44" height="33.44" fill="#8f6c34"/><rect x="133.78" y="501.67" width="33.44" height="33.44" fill="#8c6a33"/><rect x="200.66666666666666" y="468.2222222222222" width="66.88888888888889" height="66.88888888888889" fill="#09090b"/><rect x="234.11" y="468.22" width="33.44" height="33.44" fill="#866531"/><rect x="200.67" y="501.67" width="33.44" height="33.44" fill="#261e14"/><rect x="267.55555555555554" y="468.2222222222222" width="66.88888888888889" height="66.88888888888889" fill="#09090b"/><rect x="267.56" y="468.22" width="33.44" height="33.44" fill="#40321c"/><rect x="301" y="468.22" width="33.44" height="33.44" fill="#906d34"/><rect x="267.56" y="501.67" width="33.44" height="33.44" fill="#d9a24b"/><rect x="301" y="501.67" width="33.44" height="33.44" fill="#a17a3a"/><rect x="334.44444444444446" y="468.2222222222222" width="66.88888888888889" height="66.88888888888889" fill="#09090b"/><rect x="334.44" y="468.22" width="33.44" height="33.44" fill="#7e602f"/><rect x="367.89" y="468.22" width="33.44" height="33.44" fill="#9b7538"/><rect x="334.44" y="501.67" width="33.44" height="33.44" fill="#15120f"/><rect x="367.89" y="501.67" width="33.44" height="33.44" fill="#241d13"/><rect x="401.3333333333333" y="468.2222222222222" width="66.88888888888889" height="66.88888888888889" fill="#09090b"/><rect x="401.33" y="468.22" width="33.44" height="33.44" fill="#3f311c"/><rect x="434.78" y="468.22" width="33.44" height="33.44" fill="#dba44c"/><rect x="401.33" y="501.67" width="33.44" height="33.44" fill="#5f4926"/><rect x="468.2222222222222" y="468.2222222222222" width="66.88888888888889" height="66.88888888888889" fill="#09090b"/><rect x="468.22" y="468.22" width="33.44" height="33.44" fill="#ae833e"/><rect x="501.67" y="468.22" width="33.44" height="33.44" fill="#100e0d"/><rect x="468.22" y="501.67" width="33.44" height="33.44" fill="#d8a24b"/><rect x="535.1111111111111" y="468.2222222222222" width="66.88888888888889" height="66.88888888888889" fill="#09090b"/><rect x="568.56" y="468.22" width="33.44" height="33.44" fill="#362b19"/><rect x="535.11" y="501.67" width="33.44" height="33.44" fill="#795c2e"/><rect x="568.56" y="501.67" width="33.44" height="33.44" fill="#271f14"/><rect x="602" y="468.2222222222222" width="66.88888888888889" height="66.88888888888889" fill="#09090b"/><rect x="602" y="468.22" width="33.44" height="33.44" fill="#5d4725"/><rect x="635.44" y="468.22" width="33.44" height="33.44" fill="#806130"/><rect x="602" y="501.67" width="33.44" height="33.44" fill="#271f14"/><rect x="635.44" y="501.67" width="33.44" height="33.44" fill="#75582c"/><rect x="668.8888888888889" y="468.2222222222222" width="66.88888888888889" height="66.88888888888889" fill="#09090b"/><rect x="668.89" y="468.22" width="33.44" height="33.44" fill="#3c2f1b"/><rect x="702.33" y="468.22" width="33.44" height="33.44" fill="#906d35"/><rect x="668.89" y="501.67" width="33.44" height="33.44" fill="#251e14"/><rect x="735.7777777777777" y="468.2222222222222" width="66.88888888888889" height="66.88888888888889" fill="#09090b"/><rect x="735.78" y="468.22" width="33.44" height="33.44" fill="#1b1611"/><rect x="769.22" y="468.22" width="33.44" height="33.44" fill="#292015"/><rect x="735.78" y="501.67" width="33.44" height="33.44" fill="#4a391f"/><rect x="769.22" y="501.67" width="33.44" height="33.44" fill="#a1793a"/><rect x="802.6666666666666" y="468.2222222222222" width="66.88888888888889" height="66.88888888888889" fill="#09090b"/><rect x="802.67" y="468.22" width="33.44" height="33.44" fill="#8a6833"/><rect x="836.11" y="468.22" width="33.44" height="33.44" fill="#554122"/><rect x="802.67" y="501.67" width="33.44" height="33.44" fill="#b58840"/><rect x="836.11" y="501.67" width="33.44" height="33.44" fill="#ce9b48"/><rect x="869.5555555555555" y="468.2222222222222" width="66.88888888888889" height="66.88888888888889" fill="#09090b"/><rect x="869.56" y="468.22" width="33.44" height="33.44" fill="#685028"/><rect x="903" y="468.22" width="33.44" height="33.44" fill="#bc8d42"/><rect x="903" y="501.67" width="33.44" height="33.44" fill="#271f14"/><rect x="936.4444444444443" y="468.2222222222222" width="66.88888888888889" height="66.88888888888889" fill="#09090b"/><rect x="936.44" y="468.22" width="33.44" height="33.44" fill="#110f0d"/><rect x="969.89" y="468.22" width="33.44" height="33.44" fill="#75592c"/><rect x="936.44" y="501.67" width="33.44" height="33.44" fill="#947036"/><rect x="969.89" y="501.67" width="33.44" height="33.44" fill="#c49344"/><rect x="1003.3333333333333" y="468.2222222222222" width="66.88888888888889" height="66.88888888888889" fill="#09090b"/><rect x="1003.33" y="468.22" width="33.44" height="33.44" fill="#251e14"/><rect x="1036.78" y="468.22" width="33.44" height="33.44" fill="#7f612f"/><rect x="1003.33" y="501.67" width="33.44" height="33.44" fill="#dca54c"/><rect x="1070.2222222222222" y="468.2222222222222" width="66.88888888888889" height="66.88888888888889" fill="#09090b"/><rect x="1070.22" y="468.22" width="33.44" height="33.44" fill="#c19144"/><rect x="1070.22" y="501.67" width="33.44" height="33.44" fill="#a57d3b"/><rect x="1103.67" y="501.67" width="33.44" height="33.44" fill="#d09c48"/><rect x="0" y="535.1111111111111" width="66.88888888888889" height="66.88888888888889" fill="#09090b"/><rect x="0" y="535.11" width="33.44" height="33.44" fill="#5c4625"/><rect x="33.44" y="535.11" width="33.44" height="33.44" fill="#bc8d42"/><rect x="0" y="568.56" width="33.44" height="33.44" fill="#40321c"/><rect x="33.44" y="568.56" width="33.44" height="33.44" fill="#47371e"/><rect x="66.88888888888889" y="535.1111111111111" width="66.88888888888889" height="66.88888888888889" fill="#09090b"/><rect x="66.89" y="535.11" width="33.44" height="33.44" fill="#261e14"/><rect x="100.33" y="535.11" width="33.44" height="33.44" fill="#bd8e42"/><rect x="66.89" y="568.56" width="33.44" height="33.44" fill="#7a5d2e"/><rect x="100.33" y="568.56" width="33.44" height="33.44" fill="#4d3b20"/><rect x="133.77777777777777" y="535.1111111111111" width="66.88888888888889" height="66.88888888888889" fill="#09090b"/><rect x="133.78" y="535.11" width="33.44" height="33.44" fill="#6f542a"/><rect x="167.22" y="535.11" width="33.44" height="33.44" fill="#73582c"/><rect x="133.78" y="568.56" width="33.44" height="33.44" fill="#d49f49"/><rect x="167.22" y="568.56" width="33.44" height="33.44" fill="#967136"/><rect x="200.66666666666666" y="535.1111111111111" width="66.88888888888889" height="66.88888888888889" fill="#09090b"/><rect x="200.67" y="535.11" width="33.44" height="33.44" fill="#8b6933"/><rect x="234.11" y="535.11" width="33.44" height="33.44" fill="#45351d"/><rect x="200.67" y="568.56" width="33.44" height="33.44" fill="#2b2216"/><rect x="234.11" y="568.56" width="33.44" height="33.44" fill="#43341d"/><rect x="267.55555555555554" y="535.1111111111111" width="66.88888888888889" height="66.88888888888889" fill="#09090b"/><rect x="267.56" y="535.11" width="33.44" height="33.44" fill="#ab813d"/><rect x="301" y="535.11" width="33.44" height="33.44" fill="#795c2e"/><rect x="267.56" y="568.56" width="33.44" height="33.44" fill="#a37b3a"/><rect x="301" y="568.56" width="33.44" height="33.44" fill="#bf9043"/><rect x="334.44444444444446" y="535.1111111111111" width="66.88888888888889" height="66.88888888888889" fill="#09090b"/><rect x="334.44" y="535.11" width="33.44" height="33.44" fill="#44341d"/><rect x="367.89" y="535.11" width="33.44" height="33.44" fill="#46361e"/><rect x="334.44" y="568.56" width="33.44" height="33.44" fill="#352918"/><rect x="367.89" y="568.56" width="33.44" height="33.44" fill="#4b391f"/><rect x="401.3333333333333" y="535.1111111111111" width="66.88888888888889" height="66.88888888888889" fill="#09090b"/><rect x="401.33" y="535.11" width="33.44" height="33.44" fill="#110f0d"/><rect x="434.78" y="535.11" width="33.44" height="33.44" fill="#af843e"/><rect x="401.33" y="568.56" width="33.44" height="33.44" fill="#c49345"/><rect x="434.78" y="568.56" width="33.44" height="33.44" fill="#b68940"/><rect x="468.2222222222222" y="535.1111111111111" width="66.88888888888889" height="66.88888888888889" fill="#09090b"/><rect x="468.22" y="535.11" width="33.44" height="33.44" fill="#644c27"/><rect x="501.67" y="535.11" width="33.44" height="33.44" fill="#0c0b0c"/><rect x="468.22" y="568.56" width="33.44" height="33.44" fill="#614a26"/><rect x="501.67" y="568.56" width="33.44" height="33.44" fill="#856531"/><rect x="535.1111111111111" y="535.1111111111111" width="66.88888888888889" height="66.88888888888889" fill="#09090b"/><rect x="535.11" y="535.11" width="33.44" height="33.44" fill="#a0793a"/><rect x="568.56" y="535.11" width="33.44" height="33.44" fill="#3a2d1a"/><rect x="535.11" y="568.56" width="33.44" height="33.44" fill="#ab813d"/><rect x="568.56" y="568.56" width="33.44" height="33.44" fill="#0d0c0c"/><rect x="602" y="535.1111111111111" width="66.88888888888889" height="66.88888888888889" fill="#09090b"/><rect x="602" y="535.11" width="33.44" height="33.44" fill="#1b1711"/><rect x="635.44" y="535.11" width="33.44" height="33.44" fill="#d39e49"/><rect x="602" y="568.56" width="33.44" height="33.44" fill="#1c1711"/><rect x="635.44" y="568.56" width="33.44" height="33.44" fill="#c69545"/><rect x="668.8888888888889" y="535.1111111111111" width="66.88888888888889" height="66.88888888888889" fill="#09090b"/><rect x="668.89" y="535.11" width="33.44" height="33.44" fill="#7f602f"/><rect x="702.33" y="535.11" width="33.44" height="33.44" fill="#201a12"/><rect x="668.89" y="568.56" width="33.44" height="33.44" fill="#17140f"/><rect x="702.33" y="568.56" width="33.44" height="33.44" fill="#d39e49"/><rect x="735.7777777777777" y="535.1111111111111" width="66.88888888888889" height="66.88888888888889" fill="#09090b"/><rect x="735.78" y="535.11" width="33.44" height="33.44" fill="#977237"/><rect x="769.22" y="535.11" width="33.44" height="33.44" fill="#5c4625"/><rect x="735.78" y="568.56" width="33.44" height="33.44" fill="#997437"/><rect x="769.22" y="568.56" width="33.44" height="33.44" fill="#292015"/><rect x="802.6666666666666" y="535.1111111111111" width="66.88888888888889" height="66.88888888888889" fill="#09090b"/><rect x="802.67" y="535.11" width="33.44" height="33.44" fill="#181410"/><rect x="836.11" y="535.11" width="33.44" height="33.44" fill="#846431"/><rect x="802.67" y="568.56" width="33.44" height="33.44" fill="#14110e"/><rect x="836.11" y="568.56" width="33.44" height="33.44" fill="#6b5129"/><rect x="869.5555555555555" y="535.1111111111111" width="66.88888888888889" height="66.88888888888889" fill="#09090b"/><rect x="869.56" y="535.11" width="33.44" height="33.44" fill="#886732"/><rect x="903" y="535.11" width="33.44" height="33.44" fill="#0f0d0d"/><rect x="869.56" y="568.56" width="33.44" height="33.44" fill="#44341d"/><rect x="903" y="568.56" width="33.44" height="33.44" fill="#826330"/><rect x="936.4444444444443" y="535.1111111111111" width="66.88888888888889" height="66.88888888888889" fill="#09090b"/><rect x="936.44" y="535.11" width="33.44" height="33.44" fill="#674e28"/><rect x="969.89" y="535.11" width="33.44" height="33.44" fill="#be8f43"/><rect x="936.44" y="568.56" width="33.44" height="33.44" fill="#c59445"/><rect x="969.89" y="568.56" width="33.44" height="33.44" fill="#0a0a0b"/><rect x="1003.3333333333333" y="535.1111111111111" width="66.88888888888889" height="66.88888888888889" fill="#09090b"/><rect x="1003.33" y="535.11" width="33.44" height="33.44" fill="#6d532a"/><rect x="1036.78" y="535.11" width="33.44" height="33.44" fill="#d29d49"/><rect x="1003.33" y="568.56" width="33.44" height="33.44" fill="#1c1711"/><rect x="1036.78" y="568.56" width="33.44" height="33.44" fill="#3d301b"/><rect x="1070.2222222222222" y="535.1111111111111" width="66.88888888888889" height="66.88888888888889" fill="#09090b"/><rect x="1070.22" y="535.11" width="33.44" height="33.44" fill="#c49345"/><rect x="1103.67" y="535.11" width="33.44" height="33.44" fill="#b68940"/><rect x="1070.22" y="568.56" width="33.44" height="33.44" fill="#0f0e0d"/><rect x="1103.67" y="568.56" width="33.44" height="33.44" fill="#b58840"/></g></svg>