<?xml version="1.0" standalone="no"?><svg xmlns:xlink="http://www.w3.org/1999/xlink" xmlns="http://www.w3.org/2000/svg" viewBox="0 0 1000 562.5026674064275" preserveAspectRatio="xMaxYMax slice"><g transform="scale(0.8535700567624088)"><rect x="0" y="0" width="1171.5555555555557" height="659" fill="#E9E7E7"/><circle cx="36.61" cy="36.61" r="7.32" fill="#a3b3a7"/><circle cx="109.83000000000001" cy="36.61" r="7.32" fill="#f4e6e6"/><circle cx="183.04999999999998" cy="36.61" r="7.32" fill="#c6c3c3"/><circle cx="256.28000000000003" cy="36.61" r="7.32" fill="#d7d4d4"/><circle cx="329.5" cy="36.61" r="7.32" fill="#f4e6e6"/><circle cx="402.71999999999997" cy="36.61" r="7.32" fill="#718f7a"/><circle cx="475.94" cy="36.61" r="7.32" fill="#f3e6e6"/><circle cx="549.1600000000001" cy="36.61" r="7.32" fill="#91a697"/><circle cx="622.3900000000001" cy="36.61" r="7.32" fill="#fae5e5"/><circle cx="695.61" cy="36.61" r="7.32" fill="#f7e5e5"/><circle cx="768.83" cy="36.61" r="7.32" fill="#f3e6e6"/><circle cx="842.0500000000001" cy="36.61" r="7.32" fill="#8c8787"/><circle cx="915.2800000000001" cy="36.61" r="7.32" fill="#989393"/><circle cx="988.5" cy="36.61" r="7.32" fill="#73907c"/><circle cx="1061.72" cy="36.61" r="7.32" fill="#5f5858"/><circle cx="1134.9399999999998" cy="36.61" r="7.32" fill="#ece7e7"/><circle cx="36.61" cy="109.83000000000001" r="7.32" fill="#ced3cf"/><circle cx="109.83000000000001" cy="109.83000000000001" r="7.32" fill="#abb9ae"/><circle cx="183.04999999999998" cy="109.83000000000001" r="7.32" fill="#e9e7e7"/><circle cx="256.28000000000003" cy="109.83000000000001" r="7.32" fill="#e1e1e0"/><circle cx="329.5" cy="109.83000000000001" r="7.32" fill="#f5e6e6"/><circle cx="402.71999999999997" cy="109.83000000000001" r="7.32" fill="#92a798"/><circle cx="475.94" cy="109.83000000000001" r="7.32" fill="#ced3ce"/><circle cx="549.1600000000001" cy="109.83000000000001" r="7.32" fill="#827d7d"/><circle cx="622.3900000000001" cy="109.83000000000001" r="7.32" fill="#7d9885"/><circle cx="695.61" cy="109.83000000000001" r="7.32" fill="#ece7e7"/><circle cx="768.83" cy="109.83000000000001" r="7.32" fill="#615a5a"/><circle cx="842.0500000000001" cy="109.83000000000001" r="7.32" fill="#f1e6e6"/><circle cx="915.2800000000001" cy="109.83000000000001" r="7.32" fill="#8b8686"/><circle cx="988.5" cy="109.83000000000001" r="7.32" fill="#afbcb2"/><circle cx="1061.72" cy="109.83000000000001" r="7.32" fill="#a4b4a8"/><circle cx="1134.9399999999998" cy="109.83000000000001" r="7.32" fill="#6e8c78"/><circle cx="36.61" cy="183.04999999999998" r="7.32" fill="#849d8c"/><circle cx="109.83000000000001" cy="183.04999999999998" r="7.32" fill="#f8e5e5"/><circle cx="183.04999999999998" cy="183.04999999999998" r="7.32" fill="#ebe7e7"/><circle cx="256.28000000000003" cy="183.04999999999998" r="7.32" fill="#8b8686"/><circle cx="329.5" cy="183.04999999999998" r="7.32" fill="#858080"/><circle cx="402.71999999999997" cy="183.04999999999998" r="7.32" fill="#cdd3ce"/><circle cx="475.94" cy="183.04999999999998" r="7.32" fill="#f4e6e6"/><circle cx="549.1600000000001" cy="183.04999999999998" r="7.32" fill="#efe6e6"/><circle cx="622.3900000000001" cy="183.04999999999998" r="7.32" fill="#f5e6e6"/><circle cx="695.61" cy="183.04999999999998" r="7.32" fill="#ece7e7"/><circle cx="768.83" cy="183.04999999999998" r="7.32" fill="#f9e5e5"/><circle cx="842.0500000000001" cy="183.04999999999998" r="7.32" fill="#706969"/><circle cx="915.2800000000001" cy="183.04999999999998" r="7.32" fill="#eae7e7"/><circle cx="988.5" cy="183.04999999999998" r="7.32" fill="#908b8b"/><circle cx="1061.72" cy="183.04999999999998" r="7.32" fill="#eee6e6"/><circle cx="1134.9399999999998" cy="183.04999999999998" r="7.32" fill="#eae7e7"/><circle cx="36.61" cy="256.28000000000003" r="7.32" fill="#ece7e7"/><circle cx="109.83000000000001" cy="256.28000000000003" r="7.32" fill="#f2e6e6"/><circle cx="183.04999999999998" cy="256.28000000000003" r="7.32" fill="#7e7878"/><circle cx="256.28000000000003" cy="256.28000000000003" r="7.32" fill="#c6c2c2"/><circle cx="329.5" cy="256.28000000000003" r="7.32" fill="#736d6d"/><circle cx="402.71999999999997" cy="256.28000000000003" r="7.32" fill="#ebe7e7"/><circle cx="475.94" cy="256.28000000000003" r="7.32" fill="#ece7e7"/><circle cx="549.1600000000001" cy="256.28000000000003" r="7.32" fill="#c5ccc6"/><circle cx="622.3900000000001" cy="256.28000000000003" r="7.32" fill="#abb9ae"/><circle cx="695.61" cy="256.28000000000003" r="7.32" fill="#bbc5bd"/><circle cx="768.83" cy="256.28000000000003" r="7.32" fill="#f6e5e5"/><circle cx="842.0500000000001" cy="256.28000000000003" r="7.32" fill="#807b7b"/><circle cx="915.2800000000001" cy="256.28000000000003" r="7.32" fill="#f3e6e6"/><circle cx="988.5" cy="256.28000000000003" r="7.32" fill="#dedcdc"/><circle cx="1061.72" cy="256.28000000000003" r="7.32" fill="#868080"/><circle cx="1134.9399999999998" cy="256.28000000000003" r="7.32" fill="#635c5c"/><circle cx="36.61" cy="329.5" r="7.32" fill="#e2e0e0"/><circle cx="109.83000000000001" cy="329.5" r="7.32" fill="#8da394"/><circle cx="183.04999999999998" cy="329.5" r="7.32" fill="#d7d4d4"/><circle cx="256.28000000000003" cy="329.5" r="7.32" fill="#dfdddd"/><circle cx="329.5" cy="329.5" r="7.32" fill="#f9e5e5"/><circle cx="402.71999999999997" cy="329.5" r="7.32" fill="#678771"/><circle cx="475.94" cy="329.5" r="7.32" fill="#6d8b76"/><circle cx="549.1600000000001" cy="329.5" r="7.32" fill="#f8e5e5"/><circle cx="622.3900000000001" cy="329.5" r="7.32" fill="#afabab"/><circle cx="695.61" cy="329.5" r="7.32" fill="#7c9784"/><circle cx="768.83" cy="329.5" r="7.32" fill="#efe6e6"/><circle cx="842.0500000000001" cy="329.5" r="7.32" fill="#898383"/><circle cx="915.2800000000001" cy="329.5" r="7.32" fill="#bec7c0"/><circle cx="988.5" cy="329.5" r="7.32" fill="#918b8b"/><circle cx="1061.72" cy="329.5" r="7.32" fill="#9f9a9a"/><circle cx="1134.9399999999998" cy="329.5" r="7.32" fill="#65866f"/><circle cx="36.61" cy="402.71999999999997" r="7.32" fill="#8d8888"/><circle cx="109.83000000000001" cy="402.71999999999997" r="7.32" fill="#f4e6e6"/><circle cx="183.04999999999998" cy="402.71999999999997" r="7.32" fill="#f0e6e6"/><circle cx="256.28000000000003" cy="402.71999999999997" r="7.32" fill="#665f5f"/><circle cx="329.5" cy="402.71999999999997" r="7.32" fill="#889f8f"/><circle cx="402.71999999999997" cy="402.71999999999997" r="7.32" fill="#6a6464"/><circle cx="475.94" cy="402.71999999999997" r="7.32" fill="#ece7e7"/><circle cx="549.1600000000001" cy="402.71999999999997" r="7.32" fill="#879f8e"/><circle cx="622.3900000000001" cy="402.71999999999997" r="7.32" fill="#e9e7e7"/><circle cx="695.61" cy="402.71999999999997" r="7.32" fill="#dad8d8"/><circle cx="768.83" cy="402.71999999999997" r="7.32" fill="#708e79"/><circle cx="842.0500000000001" cy="402.71999999999997" r="7.32" fill="#f6e5e5"/><circle cx="915.2800000000001" cy="402.71999999999997" r="7.32" fill="#91a698"/><circle cx="988.5" cy="402.71999999999997" r="7.32" fill="#f9e5e5"/><circle cx="1061.72" cy="402.71999999999997" r="7.32" fill="#668770"/><circle cx="1134.9399999999998" cy="402.71999999999997" r="7.32" fill="#f0e6e6"/><circle cx="36.61" cy="475.94" r="7.32" fill="#e9e7e7"/><circle cx="109.83000000000001" cy="475.94" r="7.32" fill="#c1bebe"/><circle cx="183.04999999999998" cy="475.94" r="7.32" fill="#dad8d8"/><circle cx="256.28000000000003" cy="475.94" r="7.32" fill="#f1e6e6"/><circle cx="329.5" cy="475.94" r="7.32" fill="#a39f9f"/><circle cx="402.71999999999997" cy="475.94" r="7.32" fill="#e9e7e7"/><circle cx="475.94" cy="475.94" r="7.32" fill="#d9dbd9"/><circle cx="549.1600000000001" cy="475.94" r="7.32" fill="#8ca293"/><circle cx="622.3900000000001" cy="475.94" r="7.32" fill="#e3e1e1"/><circle cx="695.61" cy="475.94" r="7.32" fill="#f3e6e6"/><circle cx="768.83" cy="475.94" r="7.32" fill="#809987"/><circle cx="842.0500000000001" cy="475.94" r="7.32" fill="#f4e6e6"/><circle cx="915.2800000000001" cy="475.94" r="7.32" fill="#93a899"/><circle cx="988.5" cy="475.94" r="7.32" fill="#7e7878"/><circle cx="1061.72" cy="475.94" r="7.32" fill="#fae5e5"/><circle cx="1134.9399999999998" cy="475.94" r="7.32" fill="#aab8ae"/><circle cx="36.61" cy="549.1600000000001" r="7.32" fill="#a4b4a8"/><circle cx="109.83000000000001" cy="549.1600000000001" r="7.32" fill="#f6e5e5"/><circle cx="183.04999999999998" cy="549.1600000000001" r="7.32" fill="#a7a2a2"/><circle cx="256.28000000000003" cy="549.1600000000001" r="7.32" fill="#f2e6e6"/><circle cx="329.5" cy="549.1600000000001" r="7.32" fill="#f9e5e5"/><circle cx="402.71999999999997" cy="549.1600000000001" r="7.32" fill="#888282"/><circle cx="475.94" cy="549.1600000000001" r="7.32" fill="#dcdada"/><circle cx="549.1600000000001" cy="549.1600000000001" r="7.32" fill="#eae7e7"/><circle cx="622.3900000000001" cy="549.1600000000001" r="7.32" fill="#c6cdc7"/><circle cx="695.61" cy="549.1600000000001" r="7.32" fill="#7c7676"/><circle cx="768.83" cy="549.1600000000001" r="7.32" fill="#f6e5e5"/><circle cx="842.0500000000001" cy="549.1600000000001" r="7.32" fill="#7e9886"/><circle cx="915.2800000000001" cy="549.1600000000001" r="7.32" fill="#767070"/><circle cx="988.5" cy="549.1600000000001" r="7.32" fill="#8aa191"/><circle cx="1061.72" cy="549.1600000000001" r="7.32" fill="#dfdfde"/><circle cx="1134.9399999999998" cy="549.1600000000001" r="7.32" fill="#dbddda"/><circle cx="36.61" cy="622.3900000000001" r="7.32" fill="#d2d0d0"/><circle cx="109.83000000000001" cy="622.3900000000001" r="7.32" fill="#a0b1a5"/><circle cx="183.04999999999998" cy="622.3900000000001" r="7.32" fill="#f1e6e6"/><circle cx="256.28000000000003" cy="622.3900000000001" r="7.32" fill="#d0d5d0"/><circle cx="329.5" cy="622.3900000000001" r="7.32" fill="#f8e5e5"/><circle cx="402.71999999999997" cy="622.3900000000001" r="7.32" fill="#f3e6e6"/><circle cx="475.94" cy="622.3900000000001" r="7.32" fill="#aeaaaa"/><circle cx="549.1600000000001" cy="622.3900000000001" r="7.32" fill="#f4e6e6"/><circle cx="622.3900000000001" cy="622.3900000000001" r="7.32" fill="#f6e5e5"/><circle cx="695.61" cy="622.3900000000001" r="7.32" fill="#f1e6e6"/><circle cx="768.83" cy="622.3900000000001" r="7.32" fill="#5e5757"/><circle cx="842.0500000000001" cy="622.3900000000001" r="7.32" fill="#75927e"/><circle cx="915.2800000000001" cy="622.3900000000001" r="7.32" fill="#bcb8b8"/><circle cx="988.5" cy="622.3900000000001" r="7.32" fill="#a7b6ab"/><circle cx="1061.72" cy="622.3900000000001" r="7.32" fill="#dcd9d9"/><circle cx="1134.9399999999998" cy="622.3900000000001" r="7.32" fill="#b0acac"/></g></svg>