<?xml version="1.0" standalone="no"?><svg xmlns:xlink="http://www.w3.org/1999/xlink" xmlns="http://www.w3.org/2000/svg" viewBox="0 0 1000 562.5011679841527" preserveAspectRatio="xMaxYMax slice"><g transform="scale(0.934387322232812)"><rect x="0" y="0" width="1070.2222222222222" height="602" fill="#171212"/><circle cx="33.45" cy="33.45" r="6.69" fill="#382817"/><circle cx="100.33" cy="33.45" r="6.69" fill="#1b6a34"/><circle cx="167.22" cy="33.45" r="6.69" fill="#18261a"/><circle cx="234.10999999999999" cy="33.45" r="6.69" fill="#18321f"/><circle cx="301" cy="33.45" r="6.69" fill="#1a542c"/><circle cx="367.89" cy="33.45" r="6.69" fill="#171915"/><circle cx="434.78" cy="33.45" r="6.69" fill="#194325"/><circle cx="501.67" cy="33.45" r="6.69" fill="#1dac4f"/><circle cx="568.5600000000001" cy="33.45" r="6.69" fill="#895e24"/><circle cx="635.45" cy="33.45" r="6.69" fill="#194627"/><circle cx="702.33" cy="33.45" r="6.69" fill="#1b6e37"/><circle cx="769.22" cy="33.45" r="6.69" fill="#1daf50"/><circle cx="836.11" cy="33.45" r="6.69" fill="#704d20"/><circle cx="903" cy="33.45" r="6.69" fill="#765121"/><circle cx="969.8900000000001" cy="33.45" r="6.69" fill="#b67c2b"/><circle cx="1036.78" cy="33.45" r="6.69" fill="#1d9c49"/><circle cx="33.45" cy="100.33" r="6.69" fill="#193f24"/><circle cx="100.33" cy="100.33" r="6.69" fill="#1fd25d"/><circle cx="167.22" cy="100.33" r="6.69" fill="#1d9f4a"/><circle cx="234.10999999999999" cy="100.33" r="6.69" fill="#193b22"/><circle cx="301" cy="100.33" r="6.69" fill="#181f17"/><circle cx="367.89" cy="100.33" r="6.69" fill="#1a572d"/><circle cx="434.78" cy="100.33" r="6.69" fill="#a36f28"/><circle cx="501.67" cy="100.33" r="6.69" fill="#1da54d"/><circle cx="568.5600000000001" cy="100.33" r="6.69" fill="#c7872d"/><circle cx="635.45" cy="100.33" r="6.69" fill="#1a522b"/><circle cx="702.33" cy="100.33" r="6.69" fill="#1b6e36"/><circle cx="769.22" cy="100.33" r="6.69" fill="#1a6131"/><circle cx="836.11" cy="100.33" r="6.69" fill="#1eaf51"/><circle cx="903" cy="100.33" r="6.69" fill="#171613"/><circle cx="969.8900000000001" cy="100.33" r="6.69" fill="#1da24b"/><circle cx="1036.78" cy="100.33" r="6.69" fill="#1d9747"/><circle cx="33.45" cy="167.22" r="6.69" fill="#183620"/><circle cx="100.33" cy="167.22" r="6.69" fill="#1a592e"/><circle cx="167.22" cy="167.22" r="6.69" fill="#1ebb54"/><circle cx="234.10999999999999" cy="167.22" r="6.69" fill="#1a562d"/><circle cx="301" cy="167.22" r="6.69" fill="#1b6d36"/><circle cx="367.89" cy="167.22" r="6.69" fill="#392917"/><circle cx="434.78" cy="167.22" r="6.69" fill="#193b22"/><circle cx="501.67" cy="167.22" r="6.69" fill="#322416"/><circle cx="568.5600000000001" cy="167.22" r="6.69" fill="#193721"/><circle cx="635.45" cy="167.22" r="6.69" fill="#1a6131"/><circle cx="702.33" cy="167.22" r="6.69" fill="#1ec759"/><circle cx="769.22" cy="167.22" r="6.69" fill="#1da44c"/><circle cx="836.11" cy="167.22" r="6.69" fill="#1b7439"/><circle cx="903" cy="167.22" r="6.69" fill="#171513"/><circle cx="969.8900000000001" cy="167.22" r="6.69" fill="#b47a2a"/><circle cx="1036.78" cy="167.22" r="6.69" fill="#1c9847"/><circle cx="33.45" cy="234.10999999999999" r="6.69" fill="#50381b"/><circle cx="100.33" cy="234.10999999999999" r="6.69" fill="#1eb252"/><circle cx="167.22" cy="234.10999999999999" r="6.69" fill="#194024"/><circle cx="234.10999999999999" cy="234.10999999999999" r="6.69" fill="#be812c"/><circle cx="301" cy="234.10999999999999" r="6.69" fill="#1da04a"/><circle cx="367.89" cy="234.10999999999999" r="6.69" fill="#194727"/><circle cx="434.78" cy="234.10999999999999" r="6.69" fill="#18261a"/><circle cx="501.67" cy="234.10999999999999" r="6.69" fill="#181f17"/><circle cx="568.5600000000001" cy="234.10999999999999" r="6.69" fill="#1c9847"/><circle cx="635.45" cy="234.10999999999999" r="6.69" fill="#18331f"/><circle cx="702.33" cy="234.10999999999999" r="6.69" fill="#50381b"/><circle cx="769.22" cy="234.10999999999999" r="6.69" fill="#1b6e37"/><circle cx="836.11" cy="234.10999999999999" r="6.69" fill="#1dac4e"/><circle cx="903" cy="234.10999999999999" r="6.69" fill="#1dae4f"/><circle cx="969.8900000000001" cy="234.10999999999999" r="6.69" fill="#181212"/><circle cx="1036.78" cy="234.10999999999999" r="6.69" fill="#1a5e30"/><circle cx="33.45" cy="301" r="6.69" fill="#1eb854"/><circle cx="100.33" cy="301" r="6.69" fill="#182d1d"/><circle cx="167.22" cy="301" r="6.69" fill="#1eac4f"/><circle cx="234.10999999999999" cy="301" r="6.69" fill="#c9892e"/><circle cx="301" cy="301" r="6.69" fill="#1c8d43"/><circle cx="367.89" cy="301" r="6.69" fill="#1a5d2f"/><circle cx="434.78" cy="301" r="6.69" fill="#171915"/><circle cx="501.67" cy="301" r="6.69" fill="#1ec056"/><circle cx="568.5600000000001" cy="301" r="6.69" fill="#182e1d"/><circle cx="635.45" cy="301" r="6.69" fill="#1eae50"/><circle cx="702.33" cy="301" r="6.69" fill="#1ec257"/><circle cx="769.22" cy="301" r="6.69" fill="#182419"/><circle cx="836.11" cy="301" r="6.69" fill="#1c9345"/><circle cx="903" cy="301" r="6.69" fill="#946525"/><circle cx="969.8900000000001" cy="301" r="6.69" fill="#1c8941"/><circle cx="1036.78" cy="301" r="6.69" fill="#1daf50"/><circle cx="33.45" cy="367.89" r="6.69" fill="#1c833f"/><circle cx="100.33" cy="367.89" r="6.69" fill="#193620"/><circle cx="167.22" cy="367.89" r="6.69" fill="#1da64d"/><circle cx="234.10999999999999" cy="367.89" r="6.69" fill="#1dac4e"/><circle cx="301" cy="367.89" r="6.69" fill="#171b16"/><circle cx="367.89" cy="367.89" r="6.69" fill="#412e18"/><circle cx="434.78" cy="367.89" r="6.69" fill="#1a6231"/><circle cx="501.67" cy="367.89" r="6.69" fill="#875d23"/><circle cx="568.5600000000001" cy="367.89" r="6.69" fill="#1da84e"/><circle cx="635.45" cy="367.89" r="6.69" fill="#1c9244"/><circle cx="702.33" cy="367.89" r="6.69" fill="#1b6e36"/><circle cx="769.22" cy="367.89" r="6.69" fill="#182018"/><circle cx="836.11" cy="367.89" r="6.69" fill="#191312"/><circle cx="903" cy="367.89" r="6.69" fill="#1d9d49"/><circle cx="969.8900000000001" cy="367.89" r="6.69" fill="#d48f2f"/><circle cx="1036.78" cy="367.89" r="6.69" fill="#1c9044"/><circle cx="33.45" cy="434.78" r="6.69" fill="#1b6d36"/><circle cx="100.33" cy="434.78" r="6.69" fill="#7a5421"/><circle cx="167.22" cy="434.78" r="6.69" fill="#1b7338"/><circle cx="234.10999999999999" cy="434.78" r="6.69" fill="#4f371b"/><circle cx="301" cy="434.78" r="6.69" fill="#182b1c"/><circle cx="367.89" cy="434.78" r="6.69" fill="#4f371b"/><circle cx="434.78" cy="434.78" r="6.69" fill="#1d9e4a"/><circle cx="501.67" cy="434.78" r="6.69" fill="#18331f"/><circle cx="568.5600000000001" cy="434.78" r="6.69" fill="#755020"/><circle cx="635.45" cy="434.78" r="6.69" fill="#69491f"/><circle cx="702.33" cy="434.78" r="6.69" fill="#171513"/><circle cx="769.22" cy="434.78" r="6.69" fill="#1c9044"/><circle cx="836.11" cy="434.78" r="6.69" fill="#1eb151"/><circle cx="903" cy="434.78" r="6.69" fill="#182c1c"/><circle cx="969.8900000000001" cy="434.78" r="6.69" fill="#194a28"/><circle cx="1036.78" cy="434.78" r="6.69" fill="#302216"/><circle cx="33.45" cy="501.67" r="6.69" fill="#181312"/><circle cx="100.33" cy="501.67" r="6.69" fill="#1eb251"/><circle cx="167.22" cy="501.67" r="6.69" fill="#2a1e15"/><circle cx="234.10999999999999" cy="501.67" r="6.69" fill="#a67128"/><circle cx="301" cy="501.67" r="6.69" fill="#1d9f4a"/><circle cx="367.89" cy="501.67" r="6.69" fill="#50381b"/><circle cx="434.78" cy="501.67" r="6.69" fill="#1b773a"/><circle cx="501.67" cy="501.67" r="6.69" fill="#b0782a"/><circle cx="568.5600000000001" cy="501.67" r="6.69" fill="#1eb553"/><circle cx="635.45" cy="501.67" r="6.69" fill="#171b16"/><circle cx="702.33" cy="501.67" r="6.69" fill="#1a1412"/><circle cx="769.22" cy="501.67" r="6.69" fill="#171b16"/><circle cx="836.11" cy="501.67" r="6.69" fill="#1b7439"/><circle cx="903" cy="501.67" r="6.69" fill="#194c29"/><circle cx="969.8900000000001" cy="501.67" r="6.69" fill="#1fd25d"/><circle cx="1036.78" cy="501.67" r="6.69" fill="#5c401d"/><circle cx="33.45" cy="568.5600000000001" r="6.69" fill="#194827"/><circle cx="100.33" cy="568.5600000000001" r="6.69" fill="#1b793b"/><circle cx="167.22" cy="568.5600000000001" r="6.69" fill="#1da74d"/><circle cx="234.10999999999999" cy="568.5600000000001" r="6.69" fill="#ba7e2b"/><circle cx="301" cy="568.5600000000001" r="6.69" fill="#573c1c"/><circle cx="367.89" cy="568.5600000000001" r="6.69" fill="#1c8b41"/><circle cx="434.78" cy="568.5600000000001" r="6.69" fill="#7e5722"/><circle cx="501.67" cy="568.5600000000001" r="6.69" fill="#171814"/><circle cx="568.5600000000001" cy="568.5600000000001" r="6.69" fill="#1c853f"/><circle cx="635.45" cy="568.5600000000001" r="6.69" fill="#815922"/><circle cx="702.33" cy="568.5600000000001" r="6.69" fill="#3e2c18"/><circle cx="769.22" cy="568.5600000000001" r="6.69" fill="#194125"/><circle cx="836.11" cy="568.5600000000001" r="6.69" fill="#1fd15d"/><circle cx="903" cy="568.5600000000001" r="6.69" fill="#18331f"/><circle cx="969.8900000000001" cy="568.5600000000001" r="6.69" fill="#251b14"/><circle cx="1036.78" cy="568.5600000000001" r="6.69" fill="#1b7f3d"/></g></svg>